<svg xmlns="http://www.w3.org/2000/svg" width="96" height="96" viewBox="0 0 48 48"><path fill="#4CAF50" d="M38.114,18.154c-0.896,0-1.643,0.438-1.941,1.168c-0.896,1.316-2.838,1.608-4.033,1.024c-0.221-0.505-12.846-3.946-12.846-3.801c-1.643,0.877-3.137-1.899-2.987-3.216v-0.146c0.149-0.292,0.149-0.585,0.149-0.877c0-1.607-1.345-2.923-2.987-2.923c-1.644,0-2.988,1.315-2.988,2.923c0,1.315,0.896,2.339,1.942,2.778c1.664,0.678,3.966,2.74,3.812,4.084c0.664,1.191-0.939,7.449-0.824,7.899c-0.896,0.877-2.689,0.73-3.436,0.438c-0.298-0.438-0.896-0.585-1.494-0.585c-1.643,0-2.987,1.315-2.987,2.924c0,1.607,1.344,2.923,2.987,2.923c1.046,0,1.792-0.439,2.39-1.17c0.896-1.314,2.391-2.484,3.735-2.484c0.194,0.284,16.283-5.992,16.283-6.138c0.148-0.585,2.539-1.17,4.63-0.731h0.597c1.195,0,2.242-1.023,2.242-2.192S39.31,18.154,38.114,18.154z"/><path fill="#2E7D32" d="M31.543,32.915c-1.194,0-0.597-2.776-0.597-3.215c0.147-0.218-0.896-12.131-0.896-12.131c0.149-0.439,0.299-0.877,1.045-0.877c0,0,0,0,0.149,0h0.15c1.643,0,2.986-1.315,2.986-2.923c0-1.608-1.344-2.923-2.986-2.923c-1.644,0-2.988,1.314-2.988,2.923c0,0.292,0,0.584,0.148,0.877c0,0,0.599,1.461-0.746,1.314c0,0-11.297,3.922-11.846,4.021c-1.378,2.524-5.043,1.232-6.078,0.365c-0.299-0.439-0.896-0.731-1.644-0.731C7.045,19.615,6,20.639,6,21.808C6,22.978,7.045,24,8.241,24c0.449,0,0.896-0.146,1.195-0.292c1.792-0.878,5.079-0.293,5.527,1.314v0.147c0.067,0.329,2.408,4.85,2.688,5.261c1.494,2.777-2.24,3.946-2.24,3.946c-1.046,0-1.942,0.877-1.942,2.046c0,1.17,1.045,2.192,2.24,2.192c1.195,0,2.241-1.022,2.241-2.192c0.299-2.337,1.494-3.8,3.734-3.945c0.346,0.112,5.676-0.293,6.124-0.438c1.644,0.291,0.746,1.607,0.746,3.8c0,1.607,1.346,2.923,2.988,2.923c1.644,0,2.988-1.315,2.988-2.923C34.531,34.23,33.187,32.915,31.543,32.915z"/><path fill="#4CAF50" d="M24 15A9 9 0 1 0 24 33A9 9 0 1 0 24 15Z"/><path fill="#8BC34A" d="M26.315 32.478c.331-.645-.8-.837-1.69-.806s-1.75.547-1.587 1.113c2.374 3.639.586 4.077-.458 4.808-.896.438-1.494 1.461-1.494 2.484 0 1.607 1.345 2.923 2.988 2.923s2.988-1.315 2.988-2.923C27.063 37.3 25.27 33.354 26.315 32.478zM38.862 26.923c-.598 0-1.194.146-1.643.438-1.782.727-3.415-.568-4.608-1.445-.596-.369-1.273.567-1.471.943s-.5 1.703.701 1.671c2.033-.655 4.48 2.777 4.48 2.777.449 1.022 1.495 1.607 2.689 1.607 1.645 0 2.988-1.315 2.988-2.923C41.85 28.238 40.506 26.923 38.862 26.923zM21.386 9.53c1.941 3.947 1.792 5.408.747 5.847-.93.67.57 1.576 1.679 1.436s2.109-.688 1.42-1.654c-1.715-3.028.485-5.043.485-5.043.747-.438 1.194-1.315 1.194-2.192C26.912 6.315 25.568 5 23.925 5s-2.987 1.315-2.987 2.923c0 .438.149.877.299 1.315C21.237 9.385 21.237 9.385 21.386 9.53z"/><path fill="#C5E1A5" d="M22.432,24c-1.644,0-2.987-1.315-2.987-2.923s1.344-2.923,2.987-2.923c1.643,0,2.987,1.315,2.987,2.923S24.075,24,22.432,24z"/><path fill="#F1F8E9" d="M20.938,28.385c-0.896,0-1.494-0.585-1.494-1.462s0.597-1.462,1.494-1.462c0.896,0,1.494,0.585,1.494,1.462S21.834,28.385,20.938,28.385z"/><path fill="#DCEDC8" d="M26.166,29.992c-1.195,0-2.241-1.022-2.241-2.192s1.045-2.192,2.241-2.192c1.194,0,2.24,1.022,2.24,2.192S27.36,29.992,26.166,29.992z"/></svg>